<svg width="23" height="23" viewBox="0 0 23 23" fill="none" xmlns="http://www.w3.org/2000/svg">
<path d="M0 10C0 4.47716 4.47715 2.86125e-06 10 2.86125e-06C15.5228 2.86125e-06 20 4.47716 20 10C20 12.3111 19.214 14.4374 17.8975 16.1309L22.1338 20.3662C22.6219 20.8544 22.6219 21.6456 22.1338 22.1338C21.6456 22.6219 20.8544 22.6219 20.3662 22.1338L16.1299 17.8984C14.4366 19.2144 12.3106 20 10 20C4.47715 20 0 15.5229 0 10ZM2.5 10C2.5 14.1421 5.85786 17.5 10 17.5C14.1421 17.5 17.5 14.1421 17.5 10C17.5 5.85787 14.1421 2.5 10 2.5C5.85786 2.5 2.5 5.85787 2.5 10Z" fill="#181414"/>
</svg>
