<svg width="23" height="23" viewBox="0 0 23 23" fill="none" xmlns="http://www.w3.org/2000/svg">
<path fill-rule="evenodd" clip-rule="evenodd" d="M20 10C20 14.1421 16.6421 17.5 12.5 17.5C8.35786 17.5 5 14.1421 5 10C5 5.85786 8.35786 2.5 12.5 2.5C16.6421 2.5 20 5.85786 20 10ZM22.5 10C22.5 15.5228 18.0228 20 12.5 20C10.1891 20 8.0613 19.2161 6.36795 17.8998L2.13388 22.1339C1.64573 22.622 0.854272 22.622 0.366117 22.1339C-0.122039 21.6457 -0.122039 20.8543 0.366117 20.3661L4.60018 16.1321C3.28385 14.4387 2.5 12.3109 2.5 10C2.5 4.47715 6.97715 0 12.5 0C18.0228 0 22.5 4.47715 22.5 10Z" fill="#181414"/>
</svg>
