<svg width="23" height="24" viewBox="0 0 23 24" fill="none" xmlns="http://www.w3.org/2000/svg">
<path fill-rule="evenodd" clip-rule="evenodd" d="M11.8513 0.255711C11.4038 -0.0852365 10.7837 -0.0852365 10.3362 0.255711L0.984892 7.38051C0.364271 7.85337 0 8.58886 0 9.36909V21.25C0 22.7651 1.33172 23.75 2.65625 23.75H7.34375H14.8438H19.5312C20.8558 23.75 22.1875 22.7651 22.1875 21.25V9.36909C22.1875 8.58886 21.8232 7.85337 21.2026 7.38051L11.8513 0.255711ZM16.0938 21.25H19.5312C19.6107 21.25 19.6626 21.2244 19.6875 21.2058V9.36909L11.0938 2.82147L2.5 9.36909L2.5 21.2058C2.5249 21.2244 2.57678 21.25 2.65625 21.25H6.09375V13.75C6.09375 13.0596 6.65339 12.5 7.34375 12.5H14.8438C15.5341 12.5 16.0938 13.0596 16.0938 13.75V21.25ZM8.59375 21.25H13.5938V15H8.59375V21.25Z" fill="white" fill-opacity="0.5"/>
</svg>
